<svg width="180" height="167" viewBox="0 0 180 167" fill="none" xmlns="http://www.w3.org/2000/svg">
<g clip-path="url(#clip0_1757_6)">
<path d="M29.452 12C36.8406 12 44.2292 12 51.6177 12C55.5583 12 57.036 14.4717 55.312 17.9321C52.1103 24.3586 48.6623 30.785 45.4606 37.2115C44.968 37.953 44.7217 39.1889 44.968 39.9304C47.4309 54.7607 50.14 69.3438 52.8492 84.1741C54.8195 95.544 56.7897 106.667 58.76 118.037C59.4989 121.991 58.5137 125.452 56.0509 128.418C50.3863 135.339 44.968 142.259 39.0572 149.18C33.6389 155.607 25.0189 155.607 19.8469 149.18C14.1823 142.259 8.51776 135.339 2.85319 128.418C0.390332 125.205 -0.348521 121.744 0.14405 117.789C3.83834 97.5213 7.28633 77.0061 10.9806 56.738C11.9658 51.0531 12.9509 45.6153 13.936 39.9304C14.1823 39.1889 13.936 38.2002 13.6898 37.7058C10.488 31.2794 7.04004 24.6057 3.59204 18.1793C1.86804 14.7189 3.34576 12.2472 7.28633 12.2472C14.4286 12 22.0635 12 29.452 12ZM37.8258 41.6606C32.1612 41.6606 26.7429 41.6606 21.5709 41.6606C20.5858 41.6606 20.5858 42.4021 20.5858 42.8964C16.1526 68.1079 11.7195 93.5666 7.04005 118.778C6.79376 120.755 7.04005 122.238 8.27147 123.969C13.6898 130.642 19.3543 137.316 24.7726 144.237C27.4818 147.45 30.9298 147.45 33.6389 144.237C38.3183 138.552 42.9977 132.867 47.4309 127.182C52.3566 121.25 51.864 122.733 50.6326 114.823C47.4309 96.7798 44.2292 78.7363 41.0275 60.6928C40.0423 54.2663 39.0572 48.087 37.8258 41.6606ZM46.692 19.168C35.1166 19.168 23.7875 19.168 12.212 19.168C14.6749 24.1114 17.384 29.0548 19.8469 33.9983C20.0932 34.2454 20.5858 34.4926 21.0783 34.4926C26.7429 34.4926 32.4075 34.4926 38.072 34.4926C38.5646 34.4926 39.0572 34.2454 39.3035 33.9983C41.52 29.0548 43.9829 24.1114 46.692 19.168Z" fill="#EFA558"/>
<path d="M180 140.929C180 141.421 180 142.159 180 142.651C180 149.292 180 156.178 180 162.819C180 164.786 179.51 166.016 177.794 167C150.098 167 122.403 167 94.7069 167C92.7461 166.016 92.0108 164.541 92.0108 162.327C92.0108 154.703 92.0108 146.832 92.0108 139.208C91.7657 122.237 95.6873 106.496 103.04 91.2474C106.471 84.3608 110.393 77.4742 114.069 70.8336C114.56 70.0957 114.56 69.1119 114.56 68.3741C113.579 61.4875 112.599 54.6009 111.373 47.9602C111.128 47.2224 110.883 46.2386 110.638 45.5007C107.942 40.5817 105.491 35.4168 102.795 30.7437C101.324 28.2842 101.57 26.3166 103.04 24.1031C103.775 23.1193 104.266 22.1355 105.246 21.3976C106.717 20.4138 106.717 19.1841 106.717 17.7084C106.717 13.2813 106.717 8.8542 106.717 4.4271C106.717 1.22975 107.942 0 111.128 0C114.805 0 118.481 0 121.912 0C125.099 0 126.079 0.983802 126.079 4.18115C126.079 8.60825 126.079 13.0354 126.079 17.4625C126.079 17.9544 126.324 18.6922 126.569 18.9381C129.756 21.3976 132.942 23.8571 136.128 26.3166C139.069 24.1031 142.01 21.6436 145.196 19.1841C145.442 18.9381 145.687 18.2003 145.687 17.7084C145.687 13.2813 145.687 8.8542 145.687 4.4271C145.687 1.22975 146.912 0 150.098 0C153.775 0 157.696 0 161.373 0C164.069 0 165.049 1.22975 165.049 3.68925C165.049 8.60825 165.049 13.7732 165.049 18.6922C165.049 19.922 165.294 20.6598 166.275 21.3976C167.5 22.3814 168.481 23.6112 169.216 24.841C170.441 26.5626 170.686 28.5302 169.461 30.7437C167.01 35.4168 164.559 40.0898 162.108 44.7629C160.637 47.4683 160.392 50.4197 159.902 53.1252C158.922 58.2901 158.187 63.4551 157.451 68.866C157.451 69.3579 157.451 70.0957 157.451 70.3417C159.167 73.539 160.883 76.4904 162.843 79.6878C169.706 91.9853 180 110.677 180 140.929ZM157.696 83.1311C156.471 80.9175 155.245 78.9499 154.265 76.9823C153.285 74.7688 152.059 73.0471 149.363 73.785C149.363 73.785 149.363 73.785 149.118 73.785C147.402 73.539 146.177 72.0633 146.422 70.5876C146.422 69.1119 147.647 67.6362 149.118 67.3903C149.853 67.3903 150.589 67.3903 151.324 67.1443C151.324 66.8984 151.569 66.6524 151.569 66.4065C152.304 61.2415 153.04 56.0766 154.02 51.1576C154.51 48.2062 154.755 45.2548 156.226 42.3034C158.677 37.8763 160.883 33.4492 163.334 29.0221C163.824 28.0383 163.824 27.5464 163.088 26.8085C159.902 23.6112 152.549 22.3814 148.873 25.0869C145.687 27.5464 142.746 30.2518 139.804 33.2032C137.108 35.9087 135.638 35.9087 133.187 33.2032C131.471 31.2356 129.756 29.268 127.795 27.5464C125.099 25.0869 122.158 23.1193 118.236 23.6112C115.54 23.8572 112.844 24.349 110.638 25.8247C108.922 27.0545 108.922 27.3004 109.903 29.0221C112.354 33.6951 114.805 38.3682 117.256 43.0412C117.746 43.7791 117.991 44.5169 118.236 45.5007C118.971 49.19 119.461 52.8792 119.952 56.5685C120.442 60.0118 121.177 63.701 121.667 67.1443C122.648 67.1443 123.383 67.1443 124.363 67.1443C126.079 67.3903 127.55 68.62 127.55 70.3417C127.55 72.0633 126.324 73.2931 124.608 73.539C123.628 73.539 122.648 73.539 121.912 73.539C121.422 73.539 120.687 74.0309 120.442 74.2769C116.52 81.6554 112.354 88.7879 108.922 96.4124C103.04 109.202 99.6088 122.729 99.6088 136.994C99.6088 144.373 99.6088 151.751 99.6088 159.13C99.6088 159.376 99.6088 159.867 99.6088 160.113C101.815 160.113 103.775 160.113 105.981 160.113C105.981 154.703 105.981 149.538 105.981 144.373C105.981 142.159 107.452 140.683 109.413 140.683C111.128 140.683 112.599 142.159 112.599 144.373C112.599 147.57 112.599 150.521 112.599 153.719C112.599 155.932 112.599 158.146 112.599 160.113C114.805 160.113 117.011 160.113 119.216 160.113C119.216 157.9 119.216 155.686 119.216 153.719C119.216 151.997 120.687 150.521 122.403 150.521C124.118 150.521 125.589 151.751 125.834 153.473C125.834 154.211 125.834 154.948 125.834 155.686C125.834 157.162 125.834 158.884 125.834 160.359C137.599 160.359 148.873 160.359 160.392 160.359C160.637 160.359 161.128 160.359 161.618 160.359C161.618 158.146 161.618 156.178 161.618 153.965C161.618 152.489 162.353 151.259 163.824 150.767C165.049 150.275 166.275 150.767 167.255 151.751C167.745 152.489 167.99 153.473 167.99 154.457C168.235 156.424 167.99 158.392 167.99 160.359C170.196 160.359 172.402 160.359 174.363 160.359C174.363 153.719 174.363 147.078 174.363 140.437C173.382 115.105 164.559 92.4772 157.696 83.1311ZM152.304 16.7246C154.51 16.9705 156.471 17.2165 158.677 17.4625C158.677 13.7732 158.677 10.084 158.677 6.64065C156.471 6.64065 154.51 6.64065 152.304 6.64065C152.304 9.838 152.304 13.2813 152.304 16.7246ZM113.334 6.3947C113.334 10.084 113.334 13.7732 113.334 17.2165C115.54 16.9705 117.501 16.7246 119.707 16.4786C119.707 13.0353 119.707 9.59205 119.707 6.14875C117.501 6.3947 115.54 6.3947 113.334 6.3947Z" fill="#EFA558"/>
<path d="M140 79.5C140 81.3667 138.367 83 136.5 83C134.633 83 133 81.3667 133 79.5C133 77.6333 134.633 76 136.5 76C138.367 76 140 77.8667 140 79.5Z" fill="#EFA558"/>
</g>
<defs>
<clipPath id="clip0_1757_6">
<rect width="180" height="167" fill="white"/>
</clipPath>
</defs>
</svg>
